<?xml version="1.0" encoding="UTF-8" standalone="no"?>
<svg
   width="349.12289"
   height="512"
   viewBox="0 0 349.12289 512"
   version="1.1"
   id="svg5"
   xml:space="preserve"
   xmlns="http://www.w3.org/2000/svg"
   xmlns:svg="http://www.w3.org/2000/svg"><defs
     id="defs5" /><path
     fill="#427aa1"
     d="m 33.831103,0 h 41.356 238.612997 c 2.218,1.00156 6.261,1.42268 8.999,2.44354 10.404,3.94139 18.759,11.94166 23.149,22.16466 2.789,6.6429 3.184,11.5843 3.15,18.7685 -0.032,6.82 0.006,13.6883 0.006,20.5123 v 48.181 l -0.002,145.292 -0.002,156.706 0.003,51.265 c 0.005,8.841 0.048,17.733 -0.011,26.576 -0.019,2.714 -0.578,5.766 -1.632,8.29 -2.155,5.163 -6.537,8.674 -11.618,10.756 -0.836,0.342 -2.06,0.651 -2.812,1.045 h -7.939 c -1.708,-1.031 -5.071,-1.896 -7.141,-3.269 -9.565,-6.348 -19.16,-12.77 -28.701,-19.142 l -57.313,-38.27 -36.816,-24.578 c -6.479,-4.333 -14.438,-9.356 -20.597,-13.965 -2.585,2.191 -7.972,5.604 -10.977,7.614 l -19.477,13.03 -66.956997,44.704 -21.046,14.012 c -3.974,2.647 -8.923,5.747 -12.617,8.614 -6.053,3.552 -11.417,8.659 -18.231,10.939 -0.395,0.132 -0.218,0.059 -0.634,0.311 h -9.2072 c -1.0874,-0.627 -2.8606,-1.295 -4.0567,-1.88 -6.8795997,-3.364 -11.2235997,-9.341 -11.2808997,-17.11 -0.0571,-7.739 -0.0371,-15.448 -0.0305,-23.174 l 0.0104,-43.362 -0.0043,-134.603 -0.0055,-168.855 -10e-5,-56.1192 c 10e-5,-9.7467 -0.0244,-19.5207 0.0294,-29.2716 0.0209,-3.7959 1.1714,-8.4216 2.5743,-11.9827 3.9179,-9.9454 11.5061997,-18.16991 21.3790997,-22.39655 3.101,-1.32747 6.267,-2.00317 9.421,-3.048462 0.139,-0.065829 0.278,-0.1316586 0.418,-0.197488 z"
     id="path1" /><path
     fill="#2b5877"
     d="m 33.831103,0 h 41.356 c -2.787,0.938232 -6.458,2.08007 -9.109,3.23319 -8.894,3.78054 -16.155,10.59831 -20.487,19.23671 -2.51,5.0418 -4.1,11.1103 -4.211,16.7409 -0.165,8.3868 -0.093,16.9077 -0.091,25.3029 l 0.005,47.1493 -0.002,143.437 -10e-4,168.966 v 45.693 c 0,7.944 -0.081,15.911 0.118,23.851 0.06,2.412 0.762,5.096 2.04,7.14 -6.053,3.552 -11.417,8.659 -18.231,10.939 -0.395,0.132 -0.218,0.059 -0.634,0.311 h -9.2072 c -1.0874,-0.627 -2.8606,-1.295 -4.0567,-1.88 -6.8795997,-3.364 -11.2235997,-9.341 -11.2808997,-17.11 -0.0571,-7.739 -0.0371,-15.448 -0.0305,-23.174 l 0.0104,-43.362 -0.0043,-134.603 -0.0055,-168.855 -10e-5,-56.1192 c 10e-5,-9.7467 -0.0244,-19.5207 0.0294,-29.2716 0.0209,-3.7959 1.1714,-8.4216 2.5743,-11.9827 3.9179,-9.9454 11.5061997,-18.16991 21.3790997,-22.39655 3.101,-1.32747 6.267,-2.00317 9.421,-3.048462 0.139,-0.065829 0.278,-0.1316586 0.418,-0.197488 z"
     id="path2" /><path
     fill="#ebf2fa"
     d="m 117.38053,236.11583 c 38.02073,10.9915 84.60695,11.00439 118.58148,1.68142 12.94072,-3.55106 19.55545,-15.54145 26.56506,-7.44002 8.51644,9.92178 -9.04428,17.73682 -27.0865,22.8403 -26.90944,7.61169 -89.09929,6.20576 -117.24102,-2.128 -10.22219,-3.02715 -34.260257,-9.15228 -28.081817,-19.8193 6.29303,-8.48817 19.498117,2.35088 27.262797,4.8656 z"
     id="path3" /><path
     fill="#ebf2fa"
     d="m 81.488103,134.806 c 7.777,-0.441 9.46,6.142 8.853,12.423 -0.701,7.254 2.838,17.074 -6.543,19.536 -7.958,0.541 -9.55,-6.016 -8.96,-12.433 0.688,-7.486 -2.899,-16.896 6.65,-19.526 z"
     id="path4" /><path
     fill="#ebf2fa"
     d="m 265.5291,134.794 c 8.092,-0.393 9.267,6.891 8.697,13.198 -0.649,7.187 2.639,16.246 -6.479,18.766 -8.363,0.506 -9.544,-6.236 -8.975,-12.912 0.624,-7.317 -2.844,-16.724 6.757,-19.052 z"
     id="path5" /><g
     id="g5"
     transform="matrix(0.70861255,0,0,0.70861255,148.93397,231.7683)"><path
       d="m 40.049774,-100.44784 c 15.559899,0 24.958446,6.647488 27.959942,17.828518 l -13.93946,3.321901 c -1.701461,-6.076647 -6.566462,-9.398548 -14.020482,-9.398548 -11.103692,0 -17.099317,7.291977 -17.099317,21.150415 0,13.858438 5.833581,21.312459 16.775229,21.312459 9.214406,0 15.022208,-5.17804 15.920815,-14.101504 H 38.591378 v -11.667163 h 31.119799 v 7.372999 c 0,19.371614 -11.265735,30.147535 -30.228557,30.147535 -18.800778,0 -30.633667,-12.886175 -30.633667,-33.064326 0,-20.181834 12.075955,-32.902286 31.200821,-32.902286"
       id="path1-2"
       style="fill:#ebf2fa;fill-opacity:1;stroke-width:3.68282" /></g></svg>
